<svg width="482" height="170" viewBox="0 0 482 170" fill="none" xmlns="http://www.w3.org/2000/svg">
<path opacity="0.18" d="M32.5675 -36.6734C42.9015 -38.7008 53.2087 -41.0543 63.2651 -44.2576C48.4169 -44.7768 33.4914 -43.6197 18.6657 -42.0847C14.3605 -41.6421 8.25885 -40.8359 3.92001 -40.2559C1.6504 -39.9591 -0.002557 -37.8908 0.227588 -35.629C0.420228 -33.6826 1.95821 -32.2302 3.84162 -32.0577C8.60788 -31.6115 13.3848 -31.176 18.1847 -30.8673C30.1945 -30.064 42.2417 -29.6511 54.3116 -30.0709C56.7467 -30.1594 59.1718 -30.2794 61.6088 -30.4943C59.2798 -31.1765 56.9496 -31.7744 54.5977 -32.3298C47.311 -34.056 39.9672 -35.4757 32.5675 -36.6734ZM39.8023 7.98782C46.898 6.93525 54.0114 6.11422 61.1717 5.68233C63.3334 5.55572 65.5159 5.44987 67.7073 5.45979C65.6816 6.36407 63.6468 7.17366 61.6019 7.95178C47.3524 13.2923 32.6609 17.1644 17.8636 20.3531C13.1933 21.2646 11.0515 15.0166 15.2792 12.6787C30.452 4.7327 46.0386 -2.69257 62.3914 -7.76904C55.2266 -2.01639 47.6383 3.16301 39.8234 7.98751L39.8023 7.98782ZM78.2053 19.508C73.6269 29.2158 68.2111 38.5566 62.5557 47.7007C68.9198 42.6658 75.4179 37.829 82.0909 33.2742C84.1662 31.8634 86.2515 30.4842 88.4096 29.1776C85.2961 33.1217 81.975 36.8581 78.5806 40.564C70.1649 49.7066 61.218 58.425 52.0654 66.8093L46.5343 71.8004C45.1143 73.0751 42.9935 73.2854 41.3977 72.1815C39.5518 70.8916 39.1363 68.3375 40.481 66.4528C43.0418 62.8329 46.6142 57.7652 49.2471 54.2602C58.2747 42.2007 67.6477 30.2941 78.2157 19.5184L78.2053 19.508ZM89.938 96.4909C92.7774 75.356 96.0181 54.152 100.866 33.3142C101.025 48.273 100.277 63.3084 99.2246 78.2745C102.744 67.4865 106.474 56.7587 110.506 46.1844C111.778 42.8574 113.101 39.5402 114.488 36.2431C113.436 43.2545 112.101 50.2174 110.682 57.1604C107.13 74.439 102.884 91.6857 98.271 108.738L95.455 118.967C94.9206 120.914 93.0464 122.269 91.005 122.088C88.7322 121.89 87.1179 119.891 87.3833 117.611C88.1073 111.363 89.1104 102.614 89.949 96.4591L89.938 96.4909ZM151.135 115.578C152.247 122.357 154.355 135.949 155.361 142.751C155.668 144.77 154.427 146.8 152.395 147.42C150.204 148.095 147.925 146.886 147.314 144.714C143.728 132.102 139.855 118.199 136.585 105.561C130.922 83.6875 125.555 61.7251 121.373 39.4713C128.391 57.3109 134.583 75.4788 140.467 93.7461C138.698 78.6318 137.182 63.4927 136.034 48.4431C135.68 43.8546 135.389 39.2441 135.162 34.6327C137.391 43.5344 139.335 52.4931 141.205 61.4844C144.893 79.352 148.166 97.5312 151.125 115.568L151.135 115.578ZM225.521 145.565L235.328 162.901C236.355 164.719 235.803 167.119 234.015 168.367C232.131 169.691 229.556 169.254 228.287 167.408C215.558 148.862 201.112 127.444 188.776 108.713C172.175 83.3865 155.652 57.753 140.167 31.7249C157.915 54.285 175.042 77.5496 191.82 100.914C180.192 79.128 168.862 57.19 157.997 35.0977C156.556 32.095 155.072 29.1141 153.662 26.1004C156.796 30.8377 161.357 38.051 164.415 42.8843C185.613 76.5934 205.78 110.96 225.521 145.565ZM167.478 11.5788C190.392 31.7345 212.707 52.5311 234.883 73.4878C250.782 88.5102 268.567 105.739 284.293 121.08L300.599 137.107C302.084 138.592 302.195 141.035 300.769 142.71C299.279 144.471 296.662 144.72 294.945 143.28C248.373 104.065 201.635 63.9359 157.237 22.3392C183.498 42.0137 209.433 62.4094 235.089 83.1464C222.758 70.5158 210.533 57.8206 198.571 45.1741C188.135 34.054 177.657 22.9556 167.467 11.5895L167.478 11.5788ZM179.09 -5.01759C212.138 11.0065 244.763 27.8058 277.291 44.8069C300.618 56.9912 326.878 71.0395 350.136 83.5831L374.302 96.7139C376.184 97.7399 376.929 100.089 375.951 102.084C374.941 104.153 372.462 105.054 370.411 104.094C304.122 73.0282 237.33 41.0746 172.547 7.19503C207.557 21.6309 242.492 36.8054 277.254 52.3407C260.138 42.6463 243.119 32.8768 226.363 23.1139C210.558 13.8323 194.721 4.58271 179.079 -5.00689L179.09 -5.01759ZM185.066 -25.9457C228.164 -16.96 271.027 -7.11741 313.845 2.91549C344.557 10.1236 379.234 18.5589 410.004 26.1244L442 34.0828C444.089 34.6105 445.407 36.6983 444.922 38.8653C444.426 41.1062 442.213 42.5717 439.996 42.1512C353.981 25.5573 266.578 8.10937 181.357 -11.5622C228.242 -4.41274 275.421 3.56471 322.478 11.976C297.73 5.44929 272.994 -1.19347 248.471 -7.96581C227.307 -13.8603 206.142 -19.7127 185.066 -25.9457ZM477.735 -46.6745C379.748 -41.5146 280.04 -36.8351 182.111 -34.8895C231.219 -39.2043 280.803 -42.8729 330.392 -46.1518C306.603 -46.2234 282.846 -46.3693 259.597 -46.6491C235.39 -46.9675 211.172 -47.2752 186.97 -47.9519C235.437 -50.1501 283.901 -51.4948 332.362 -52.6288C378.557 -53.6767 431.397 -54.4747 477.71 -54.9555C483.144 -54.7825 483.031 -47.1528 477.725 -46.706L477.735 -46.6745Z" fill="url(#paint0_radial_1960_15777)"/>
<defs>
<radialGradient id="paint0_radial_1960_15777" cx="0" cy="0" r="1" gradientUnits="userSpaceOnUse" gradientTransform="translate(210.316 -18.9314) rotate(-34.107) scale(220.687 214.755)">
<stop offset="0.3" stop-color="#FDEE00"/>
<stop offset="0.36" stop-color="#F2EB06"/>
<stop offset="0.47" stop-color="#D5E416"/>
<stop offset="0.61" stop-color="#A6D831"/>
<stop offset="0.77" stop-color="#66C956"/>
<stop offset="0.96" stop-color="#14B585"/>
<stop offset="1" stop-color="#00B091"/>
</radialGradient>
</defs>
</svg>
