<svg width="563" height="293" viewBox="0 0 563 293" fill="none" xmlns="http://www.w3.org/2000/svg">
<path opacity="0.22" d="M589.154 188.96C576.462 195.991 563.923 203.436 552.161 211.882C572.104 206.235 591.318 198.336 610.201 190.03C615.685 187.606 623.373 183.969 628.847 181.369C631.708 180.023 632.902 176.619 631.503 173.787C630.29 171.336 627.544 170.117 624.991 170.702C618.434 172.161 611.918 173.633 605.41 175.281C589.103 179.354 572.93 183.965 557.134 189.663C553.966 190.804 550.799 192.01 547.66 193.332C551.086 193.241 554.47 193.007 557.845 192.728C568.335 191.854 578.784 190.56 589.154 188.96ZM557.813 134.145C548.92 138.537 539.882 142.625 530.618 146.254C527.818 147.341 524.984 148.395 522.076 149.339C524.324 147.303 526.621 145.39 528.971 143.515C545.253 130.51 562.833 119.209 580.905 108.774C586.651 105.594 592.536 112.78 588.06 117.612C571.804 134.387 554.781 150.682 535.563 164.235C542.269 153.707 549.797 143.762 557.807 134.165L557.813 134.145ZM501.321 135.589C502.664 121.052 505.288 106.621 508.344 92.3494C502.378 101.587 496.118 110.645 489.476 119.388C487.412 122.085 485.328 124.776 483.091 127.396C485.301 120.94 487.884 114.688 490.572 108.449C497.27 92.9935 504.884 77.8945 512.946 63.1101L517.859 54.2895C519.108 52.0209 521.827 50.8444 524.478 51.6028C527.553 52.4748 529.354 55.6285 528.482 58.6407C526.839 64.4175 524.562 72.5296 522.785 78.1777C516.711 97.6592 510.057 117.106 501.301 135.583L501.321 135.589ZM448.274 40.7692C454.806 69.3834 460.816 98.2613 464.542 127.358C457.068 108.034 450.73 88.2327 444.834 68.3572C445.42 83.8535 445.697 99.3586 445.497 114.777C445.438 119.639 445.294 124.495 445.057 129.366C443.036 119.82 441.422 110.232 439.907 100.611C436.2 76.6809 433.444 52.5162 431.231 28.4383L429.992 13.9597C429.748 11.2158 431.571 8.65714 434.386 8.00569C437.484 7.29363 440.605 9.19082 441.362 12.2488C443.44 20.6517 446.374 32.4233 448.254 40.7628L448.274 40.7692ZM357.902 42.1513C353.142 33.8406 343.726 17.1015 339.077 8.71854C337.678 6.23031 338.356 3.07041 340.73 1.39676C343.305 -0.427737 346.922 0.186833 348.784 2.7364C359.686 17.562 371.586 33.9313 382.063 48.9225C400.204 74.8697 418.026 101.06 434.383 128.137C416.386 107.998 399.362 87.0731 382.658 65.9052C392.371 84.7385 401.731 103.717 410.591 122.752C413.299 128.56 415.908 134.402 418.46 140.289C411.159 129.706 404.236 118.9 397.371 108.048C383.788 86.4343 370.604 64.259 357.902 42.1513ZM244.698 34.9928L223.263 16.7046C221.005 14.7813 220.579 11.4417 222.326 9.05237C224.183 6.5259 227.791 5.99812 230.397 7.86036C256.301 26.4968 285.867 48.0843 311.317 67.1138C345.649 92.8641 380.016 119.056 413.221 146.21C378.73 124.538 344.69 101.654 311.074 78.5401C337.074 101.83 362.776 125.434 387.953 149.45C391.337 152.722 394.734 155.954 398.08 159.277C391.614 154.466 382.074 147.062 375.658 142.094C331.15 107.426 287.685 71.4773 244.686 35.0318L244.698 34.9928ZM386.86 183.979C346.663 167.628 306.967 150.189 267.384 132.463C238.996 119.766 207.05 105.032 178.733 91.8407L149.322 78.0219C146.615 76.7511 145.29 73.6197 146.357 70.8202C147.487 67.8904 150.814 66.4561 153.802 67.6013C234.61 98.5868 316.098 130.67 395.196 165.648C350.821 151.342 306.504 135.957 262.407 120.019C284.898 131.139 307.286 142.377 329.305 153.67C348.551 163.627 367.829 173.552 386.892 183.946L386.86 183.979ZM379.548 210.441C327.943 203.766 276.539 195.908 225.143 187.751C188.285 181.903 146.666 174.903 109.726 168.556L71.3022 161.843C68.3129 161.321 66.1843 158.579 66.5027 155.584C66.8386 152.465 69.6961 150.236 72.8669 150.601C175.854 162.59 279.926 175.506 382.283 191.81C328.855 188.038 275.171 183.28 221.535 177.958C248.936 183.224 276.248 188.634 303.2 194.143C328.671 199.418 354.167 204.679 379.548 210.441ZM381.816 240.127C320.33 246.861 258.716 252.415 197.089 257.664C152.875 261.427 102.822 265.288 58.3549 268.606L12.0824 271.95C9.05457 272.169 6.30415 270.002 5.88399 266.987C5.4489 263.881 7.64867 261.034 10.8182 260.646C132.914 245.458 257.241 230.766 379.775 219.91C314.161 230.662 247.743 240.427 181.268 249.614C217.236 247.524 253.266 245.583 289.064 243.891C319.99 242.495 350.888 241.049 381.856 240.14L381.816 240.127ZM4.0014 391.917C131.346 343.395 261.24 294.783 390.075 250.456C327.076 277.006 263.162 302.921 199.014 328.331C230.578 318.259 262.118 308.329 293.085 298.755C325.325 288.833 357.57 278.892 389.97 269.43C326.794 292.957 263.222 315.39 199.546 337.531C138.835 358.618 69.1808 382.188 8.03471 402.577C0.751761 404.665 -2.81282 394.735 3.9877 391.891L4.0014 391.917Z" fill="url(#paint0_radial_1960_15774)"/>
<defs>
<radialGradient id="paint0_radial_1960_15774" cx="0" cy="0" r="1" gradientUnits="userSpaceOnUse" gradientTransform="translate(345.042 241.887) rotate(127.349) scale(299.942 304.388)">
<stop stop-color="#F47920"/>
<stop offset="0.65" stop-color="#DC3069"/>
<stop offset="1" stop-color="#D20F8C"/>
</radialGradient>
</defs>
</svg>
